{
    "asset" : {
        "generator" : "Khronos glTF Blender I/O v1.8.19",
        "version" : "2.0"
    },
    "scene" : 0,
    "scenes" : [
        {
            "name" : "Scene",
            "nodes" : [
                0
            ]
        }
    ],
    "nodes" : [
        {
            "mesh" : 0,
            "name" : "3D.Black.Bishop.002",
            "scale" : [
                0.650130033493042,
                0.7084195017814636,
                0.650130033493042
            ]
        }
    ],
    "materials" : [
        {
            "doubleSided" : true,
            "name" : "Outside Black",
            "pbrMetallicRoughness" : {}
        },
        {
            "doubleSided" : true,
            "name" : "Inside Black",
            "pbrMetallicRoughness" : {}
        }
    ],
    "meshes" : [
        {
            "name" : "BezierCurve.035",
            "primitives" : [
                {
                    "attributes" : {
                        "POSITION" : 0,
                        "NORMAL" : 1,
                        "TEXCOORD_0" : 2
                    },
                    "indices" : 3,
                    "material" : 0
                },
                {
                    "attributes" : {
                        "POSITION" : 4,
                        "NORMAL" : 5,
                        "TEXCOORD_0" : 6
                    },
                    "indices" : 7,
                    "material" : 1
                }
            ]
        }
    ],
    "accessors" : [
        {
            "bufferView" : 0,
            "componentType" : 5126,
            "count" : 3767,
            "max" : [
                1.523856520652771,
                6.5001220703125,
                1.429561734199524
            ],
            "min" : [
                -1.5302784442901611,
                -0.015497641637921333,
                -1.850805640220642
            ],
            "type" : "VEC3"
        },
        {
            "bufferView" : 1,
            "componentType" : 5126,
            "count" : 3767,
            "type" : "VEC3"
        },
        {
            "bufferView" : 2,
            "componentType" : 5126,
            "count" : 3767,
            "type" : "VEC2"
        },
        {
            "bufferView" : 3,
            "componentType" : 5123,
            "count" : 15021,
            "type" : "SCALAR"
        },
        {
            "bufferView" : 4,
            "componentType" : 5126,
            "count" : 2535,
            "max" : [
                1.523856520652771,
                6.5001220703125,
                1.429561734199524
            ],
            "min" : [
                -1.5302784442901611,
                -0.015497641637921333,
                -1.850805640220642
            ],
            "type" : "VEC3"
        },
        {
            "bufferView" : 5,
            "componentType" : 5126,
            "count" : 2535,
            "type" : "VEC3"
        },
        {
            "bufferView" : 6,
            "componentType" : 5126,
            "count" : 2535,
            "type" : "VEC2"
        },
        {
            "bufferView" : 7,
            "componentType" : 5123,
            "count" : 7269,
            "type" : "SCALAR"
        }
    ],
    "bufferViews" : [
        {
            "buffer" : 0,
            "byteLength" : 45204,
            "byteOffset" : 0
        },
        {
            "buffer" : 0,
            "byteLength" : 45204,
            "byteOffset" : 45204
        },
        {
            "buffer" : 0,
            "byteLength" : 30136,
            "byteOffset" : 90408
        },
        {
            "buffer" : 0,
            "byteLength" : 30042,
            "byteOffset" : 120544
        },
        {
            "buffer" : 0,
            "byteLength" : 30420,
            "byteOffset" : 150588
        },
        {
            "buffer" : 0,
            "byteLength" : 30420,
            "byteOffset" : 181008
        },
        {
            "buffer" : 0,
            "byteLength" : 20280,
            "byteOffset" : 211428
        },
        {
            "buffer" : 0,
            "byteLength" : 14538,
            "byteOffset" : 231708
        }
    ],
    "buffers" : [
        {
            "byteLength" : 246248,
            "uri" : "data:application/octet-stream;base64,"
        }
    ]
}
